<svg xmlns="http://www.w3.org/2000/svg" xmlns:xlink="http://www.w3.org/1999/xlink" viewBox="0 0 1920 364.8"><defs><style>.cls-1{fill:none;}.cls-2{clip-path:url(#clip-path);}.cls-3{fill:#2357a5;}.cls-4{fill:#f26721;}</style><clipPath id="clip-path" transform="translate(0 0)"><rect class="cls-1" width="1920" height="364.8"/></clipPath></defs><g id="Layer_2" data-name="Layer 2"><g id="Layer_1-2" data-name="Layer 1"><rect id="Artboard2" class="cls-1" width="1920" height="364.8"/><g class="cls-2"><g id="logo"><path class="cls-3" d="M112.27,335.36a29.31,29.31,0,0,1-58.61,0V149.61a29.31,29.31,0,0,1,58.61,0Z" transform="translate(0 0)"/><path class="cls-3" d="M333.16,120.36h-186a29.27,29.27,0,1,0,0,58.53h63.68V335.54a29.31,29.31,0,0,0,58.61,0V178.89h63.68a29.27,29.27,0,1,0,0-58.53" transform="translate(0 0)"/><path class="cls-4" d="M391.28,97.92c32.34,53.31-13.82,141.15-103.83,202.61h0q9.27-4.94,18.47-10.5C407.6,228.5,462.14,132.61,427.72,75.87S283,23,181.27,84.55c-6.15,3.72-12.11,7.58-17.91,11.53,96.22-51.26,195.58-51.46,227.92,1.84" transform="translate(0 0)"/><path class="cls-3" d="M155,46.37a14.42,14.42,0,0,0-28.16,5.32L112.3,56.2A31.22,31.22,0,0,0,63.1,44.74L40.27,22a14.43,14.43,0,1,0-4.62,4.63l23,22.88a31.12,31.12,0,0,0-3.9,30.94L24.63,99.11a14.39,14.39,0,1,0,3.46,5.56L57.91,86.18a31.19,31.19,0,0,0,56.26-23.71l14.62-4.53A14.43,14.43,0,0,0,155,46.37" transform="translate(0 0)"/></g><rect x="511.67" y="128.51" width="12.93" height="92.44"/><path d="M557.5,159.06c.18,1.57.31,3.33.39,5.29s.13,3.59.13,4.9h.4a17.93,17.93,0,0,1,3.2-4.64A23.06,23.06,0,0,1,572,158.28a23.2,23.2,0,0,1,6.53-.91,24.08,24.08,0,0,1,10.32,2,20.79,20.79,0,0,1,7.18,5.42,21.85,21.85,0,0,1,4.24,8,33.74,33.74,0,0,1,1.38,9.8V221H589.36V186.61a42.27,42.27,0,0,0-.58-7.18,17.34,17.34,0,0,0-2.16-6,11.54,11.54,0,0,0-4.31-4.18,14,14,0,0,0-7-1.57,14.86,14.86,0,0,0-12,5.55q-4.63,5.55-4.63,14.82V221H546.41V172.38q0-2.48-.14-6.4t-.39-6.92Z" transform="translate(0 0)"/><path d="M651.51,169.12H637.15V221H624.88V169.12H612.6V159.06h12.28V146.14A38.92,38.92,0,0,1,626.12,136a20.92,20.92,0,0,1,4-8,19.63,19.63,0,0,1,7.19-5.36A26,26,0,0,1,648,120.68a28.74,28.74,0,0,1,7.7.91l-1.43,10.58c-1-.27-1.92-.48-2.88-.66a18.64,18.64,0,0,0-3.26-.26,11.41,11.41,0,0,0-5.68,1.24,8.73,8.73,0,0,0-3.33,3.33,13.68,13.68,0,0,0-1.57,4.77,38.37,38.37,0,0,0-.39,5.55v12.92h14.36v10.06Z" transform="translate(0 0)"/><path d="M725.54,189.88A33.37,33.37,0,0,1,723,203.06a31.45,31.45,0,0,1-7,10.39,32,32,0,0,1-10.64,6.79,37.3,37.3,0,0,1-26.38,0,31.33,31.33,0,0,1-10.57-6.79,31.91,31.91,0,0,1-7-10.39,33.37,33.37,0,0,1-2.54-13.18,32.87,32.87,0,0,1,2.54-13.12,31,31,0,0,1,17.56-17,37.3,37.3,0,0,1,26.38,0A32.21,32.21,0,0,1,716,166.51a30.76,30.76,0,0,1,7,10.25A32.87,32.87,0,0,1,725.54,189.88Zm-12.79,0a26.41,26.41,0,0,0-1.37-8.49,21.48,21.48,0,0,0-4-7.12,19.2,19.2,0,0,0-6.47-4.89,22.15,22.15,0,0,0-17.63,0,19.36,19.36,0,0,0-6.46,4.89,21.48,21.48,0,0,0-4,7.12,27,27,0,0,0,0,17,22.18,22.18,0,0,0,4,7.18,18.81,18.81,0,0,0,6.46,5,22.15,22.15,0,0,0,17.63,0,18.66,18.66,0,0,0,6.47-5,22.18,22.18,0,0,0,4-7.18A26.3,26.3,0,0,0,712.75,189.88Z" transform="translate(0 0)"/><path d="M742.52,172.38q0-2.48-.13-6.4t-.39-6.92h11.62c.17,1.57.3,3.38.39,5.42s.13,3.72.13,5h.39a21.39,21.39,0,0,1,7.64-8.81,20,20,0,0,1,11.29-3.33,19,19,0,0,1,4.84.52l-.53,11.36a22.84,22.84,0,0,0-5.61-.65,17,17,0,0,0-7.7,1.63A15.52,15.52,0,0,0,759,174.6a18.36,18.36,0,0,0-3.2,6.33,26.67,26.67,0,0,0-1.05,7.51V221H742.52Z" transform="translate(0 0)"/><path d="M801.8,169.25a20.89,20.89,0,0,1,7.51-8.42,21.32,21.32,0,0,1,12.2-3.46,22.32,22.32,0,0,1,11.3,2.87q5,2.87,7.9,9.53a22,22,0,0,1,8.75-9.2A26.07,26.07,0,0,1,872,159.39a20.83,20.83,0,0,1,7.19,5.42,22,22,0,0,1,4.24,8,34.08,34.08,0,0,1,1.37,9.8V221H872.57V186.61a37.58,37.58,0,0,0-.66-7.18,18,18,0,0,0-2.22-6,11.84,11.84,0,0,0-4.17-4.18,12.73,12.73,0,0,0-6.66-1.57,14,14,0,0,0-7.18,1.76,14.92,14.92,0,0,0-4.9,4.57,19.24,19.24,0,0,0-2.74,6.34,30.33,30.33,0,0,0-.85,7.18V221H830.91V184.13a31.08,31.08,0,0,0-.65-6.66,13.32,13.32,0,0,0-2.22-5.15,10.93,10.93,0,0,0-4-3.4,13.55,13.55,0,0,0-6.13-1.24,14,14,0,0,0-11.29,5.55q-4.52,5.55-4.51,14.82V221H789.79V172.38c0-1.65,0-3.78-.13-6.4s-.22-4.92-.39-6.92h11.62c.17,1.57.3,3.33.39,5.29s.13,3.59.13,4.9Z" transform="translate(0 0)"/><path d="M944.12,180.87q0-6.92-4.18-10.25t-11.1-3.33a24.4,24.4,0,0,0-9.86,2,24.93,24.93,0,0,0-7.76,5.16l-6.53-7.83a32.66,32.66,0,0,1,11.16-6.79A39.79,39.79,0,0,1,930,157.37a32.08,32.08,0,0,1,11.56,1.89,21.82,21.82,0,0,1,8,5.16,21.26,21.26,0,0,1,4.7,7.7,28.56,28.56,0,0,1,1.56,9.53v27q0,3.13.2,6.59a33.56,33.56,0,0,0,.72,5.68h-11.1a38.45,38.45,0,0,1-1.05-8.87h-.39a23.8,23.8,0,0,1-8.55,7.7,25.65,25.65,0,0,1-12.21,2.74,32.09,32.09,0,0,1-7.64-1,22.09,22.09,0,0,1-7.24-3.2,18,18,0,0,1-5.42-5.87,17.46,17.46,0,0,1-2.16-9q0-7,3.79-11.16a24,24,0,0,1,9.92-6.27,56.14,56.14,0,0,1,13.84-2.8q7.71-.66,15.54-.65v-1.7Zm-3,10.57q-4.57,0-9.47.39a44.72,44.72,0,0,0-8.88,1.57,16.73,16.73,0,0,0-6.59,3.53,8,8,0,0,0-2.61,6.26,8.7,8.7,0,0,0,1.11,4.58,9.33,9.33,0,0,0,2.93,3,12,12,0,0,0,4,1.63,22.21,22.21,0,0,0,4.57.46q8.63,0,13.26-5.16a18.75,18.75,0,0,0,4.63-13v-3.27Z" transform="translate(0 0)"/><path d="M1005.36,169.12H988.91v32.25c0,3.74.69,6.42,2.09,8s3.61,2.41,6.66,2.41a18.77,18.77,0,0,0,3.65-.39,14.08,14.08,0,0,0,3.53-1.17l.39,10.05a30.74,30.74,0,0,1-4.9,1.24,33.34,33.34,0,0,1-5.55.46q-8.74,0-13.38-4.83t-4.64-14.5V169.12H964.88V159.06h11.88V141.3h12.15v17.76h16.45Z" transform="translate(0 0)"/><path d="M1030.43,221h-12.28V159.06h12.28Zm2.08-84.22a7.29,7.29,0,0,1-2.41,5.62,8.29,8.29,0,0,1-5.81,2.22,7.93,7.93,0,0,1-5.75-2.29,7.47,7.47,0,0,1-2.35-5.55,7.6,7.6,0,0,1,2.35-5.67,7.93,7.93,0,0,1,5.75-2.29,8.13,8.13,0,0,1,5.81,2.29A7.48,7.48,0,0,1,1032.51,136.73Z" transform="translate(0 0)"/><path d="M1114.51,189.88a33.37,33.37,0,0,1-2.54,13.18,31.45,31.45,0,0,1-7,10.39,32.14,32.14,0,0,1-10.64,6.79,37.3,37.3,0,0,1-26.38,0,31.47,31.47,0,0,1-10.58-6.79,31.89,31.89,0,0,1-7-10.39,33.38,33.38,0,0,1-2.55-13.18,32.87,32.87,0,0,1,2.55-13.12,31.18,31.18,0,0,1,7-10.25,31.64,31.64,0,0,1,10.58-6.73,37.3,37.3,0,0,1,26.38,0,32.31,32.31,0,0,1,10.64,6.73,30.76,30.76,0,0,1,7,10.25A32.87,32.87,0,0,1,1114.51,189.88Zm-12.79,0a26.41,26.41,0,0,0-1.37-8.49,21.66,21.66,0,0,0-4-7.12,19.3,19.3,0,0,0-6.47-4.89,22.15,22.15,0,0,0-17.63,0,19.16,19.16,0,0,0-6.46,4.89,21.48,21.48,0,0,0-4,7.12,27,27,0,0,0,0,17,22.18,22.18,0,0,0,4,7.18,18.62,18.62,0,0,0,6.46,5,22.15,22.15,0,0,0,17.63,0,18.75,18.75,0,0,0,6.47-5,22.36,22.36,0,0,0,4-7.18A26.3,26.3,0,0,0,1101.72,189.88Z" transform="translate(0 0)"/><path d="M1142.59,159.06c.17,1.57.3,3.33.39,5.29s.13,3.59.13,4.9h.39a18.18,18.18,0,0,1,3.2-4.64,23.16,23.16,0,0,1,10.38-6.33,23.2,23.2,0,0,1,6.53-.91,24.06,24.06,0,0,1,10.31,2,20.79,20.79,0,0,1,7.18,5.42,21.87,21.87,0,0,1,4.25,8,34.08,34.08,0,0,1,1.37,9.8V221h-12.28V186.61a42.27,42.27,0,0,0-.58-7.18,17.14,17.14,0,0,0-2.16-6,11.54,11.54,0,0,0-4.31-4.18,14,14,0,0,0-7.05-1.57,14.85,14.85,0,0,0-11.94,5.55q-4.64,5.55-4.64,14.82V221h-12.27V172.38c0-1.65,0-3.78-.13-6.4s-.22-4.92-.4-6.92Z" transform="translate(0 0)"/><path d="M1270,221H1257.1V139.87h-29.64V128.51h72.2v11.36H1270Z" transform="translate(0 0)"/><path d="M1344.06,184.52a23.76,23.76,0,0,0-1.24-6.85,15.75,15.75,0,0,0-3.27-5.55,15.29,15.29,0,0,0-5.35-3.72,19,19,0,0,0-7.51-1.37,20,20,0,0,0-7.38,1.37,18.88,18.88,0,0,0-6,3.72,19.68,19.68,0,0,0-4.18,5.55,17.59,17.59,0,0,0-1.89,6.85Zm12.4,5v2.09a18.18,18.18,0,0,1-.13,2.09h-49.09A18.39,18.39,0,0,0,1309,201a19.41,19.41,0,0,0,4.37,6,20.46,20.46,0,0,0,14,5.42,20.76,20.76,0,0,0,10.84-2.74,22.13,22.13,0,0,0,7.18-6.67L1354,210a30.57,30.57,0,0,1-11.68,9.59,37.72,37.72,0,0,1-28,.72,29.59,29.59,0,0,1-17.11-16.85,34.6,34.6,0,0,1-2.48-13.31,35.29,35.29,0,0,1,2.42-13.25,30.31,30.31,0,0,1,6.72-10.38,30.64,30.64,0,0,1,10.19-6.73,34.92,34.92,0,0,1,25-.19,25.37,25.37,0,0,1,9.4,6.39,28.79,28.79,0,0,1,5.94,10.12,40.23,40.23,0,0,1,2.09,13.38Z" transform="translate(0 0)"/><path d="M1416.91,174.73a15,15,0,0,0-5.87-5,17.94,17.94,0,0,0-8.36-2,19.13,19.13,0,0,0-8.55,1.83,19.46,19.46,0,0,0-6.33,4.9,21.53,21.53,0,0,0-4,7.11,27,27,0,0,0,0,17,21.58,21.58,0,0,0,4,7.12,19.22,19.22,0,0,0,6.4,4.9,21.05,21.05,0,0,0,17.17,0,17.53,17.53,0,0,0,6.33-5l8.22,7.45a26.55,26.55,0,0,1-9.79,7.11,33.17,33.17,0,0,1-13.32,2.55,36.33,36.33,0,0,1-13.25-2.35,31.61,31.61,0,0,1-10.51-6.59,30.43,30.43,0,0,1-7-10.26,36.92,36.92,0,0,1-.06-26.76,30.15,30.15,0,0,1,6.92-10.31,30.7,30.7,0,0,1,10.51-6.66,36,36,0,0,1,13.12-2.35,34.26,34.26,0,0,1,13,2.61,23.68,23.68,0,0,1,10.25,7.57l-8.88,7.18Z" transform="translate(0 0)"/><path d="M1450.86,168.46a19.06,19.06,0,0,1,7.58-7.83,22.55,22.55,0,0,1,12-3.26,24.06,24.06,0,0,1,10.31,2,20.79,20.79,0,0,1,7.18,5.42,21.72,21.72,0,0,1,4.25,8,34.08,34.08,0,0,1,1.37,9.8V221h-12.28V186.74a42.27,42.27,0,0,0-.58-7.18,17.34,17.34,0,0,0-2.16-6,11.72,11.72,0,0,0-4.24-4.18,13.68,13.68,0,0,0-7-1.57,15.05,15.05,0,0,0-12,5.55q-4.69,5.55-4.7,14.82V221h-12.27V122.24h12.27v46.22Z" transform="translate(0 0)"/><path d="M1525.42,159.06c.17,1.57.3,3.33.39,5.29s.13,3.59.13,4.9h.39a17.93,17.93,0,0,1,3.2-4.64,23.12,23.12,0,0,1,16.91-7.24,24.14,24.14,0,0,1,10.32,2,20.88,20.88,0,0,1,7.18,5.42,21.85,21.85,0,0,1,4.24,8,34.08,34.08,0,0,1,1.37,9.8V221h-12.27V186.61a42.25,42.25,0,0,0-.59-7.18,17.33,17.33,0,0,0-2.15-6,11.69,11.69,0,0,0-4.31-4.18,14,14,0,0,0-7-1.57,14.85,14.85,0,0,0-12,5.55q-4.63,5.55-4.64,14.82V221h-12.27V172.38q0-2.48-.13-6.4t-.39-6.92Z" transform="translate(0 0)"/><path d="M1653,189.88a33.38,33.38,0,0,1-2.55,13.18,31.45,31.45,0,0,1-7,10.39,32.08,32.08,0,0,1-10.65,6.79,37.27,37.27,0,0,1-26.37,0,31.23,31.23,0,0,1-10.57-6.79,31.91,31.91,0,0,1-7-10.39,33.38,33.38,0,0,1-2.55-13.18,32.87,32.87,0,0,1,2.55-13.12,31.05,31.05,0,0,1,7-10.25,31.4,31.4,0,0,1,10.57-6.73,37.27,37.27,0,0,1,26.37,0,32.25,32.25,0,0,1,10.65,6.73,30.76,30.76,0,0,1,7,10.25A32.87,32.87,0,0,1,1653,189.88Zm-12.8,0a26.41,26.41,0,0,0-1.37-8.49,21.5,21.5,0,0,0-4-7.12,19.16,19.16,0,0,0-6.46-4.89,22.12,22.12,0,0,0-17.62,0,19.2,19.2,0,0,0-6.47,4.89,21.48,21.48,0,0,0-4,7.12,27,27,0,0,0,0,17,22.18,22.18,0,0,0,4,7.18,18.66,18.66,0,0,0,6.47,5,22.12,22.12,0,0,0,17.62,0,18.62,18.62,0,0,0,6.46-5,22.2,22.2,0,0,0,4-7.18A26.3,26.3,0,0,0,1640.19,189.88Z" transform="translate(0 0)"/><rect x="1670.22" y="122.24" width="12.27" height="98.71"/><path d="M1766.58,189.88a33.38,33.38,0,0,1-2.55,13.18,31.15,31.15,0,0,1-7,10.39,32,32,0,0,1-10.64,6.79,37.27,37.27,0,0,1-26.37,0,31.37,31.37,0,0,1-10.58-6.79,31.73,31.73,0,0,1-7-10.39,33.38,33.38,0,0,1-2.55-13.18,32.87,32.87,0,0,1,2.55-13.12,31,31,0,0,1,7-10.25,31.54,31.54,0,0,1,10.58-6.73,37.27,37.27,0,0,1,26.37,0,32.21,32.21,0,0,1,10.64,6.73,30.47,30.47,0,0,1,7,10.25A32.87,32.87,0,0,1,1766.58,189.88Zm-12.79,0a26.14,26.14,0,0,0-1.38-8.49,21.48,21.48,0,0,0-4-7.12,19.16,19.16,0,0,0-6.46-4.89,22.15,22.15,0,0,0-17.63,0,19.16,19.16,0,0,0-6.46,4.89,21.48,21.48,0,0,0-4,7.12,26.78,26.78,0,0,0,0,17,22.18,22.18,0,0,0,4,7.18,18.62,18.62,0,0,0,6.46,5,22.15,22.15,0,0,0,17.63,0,18.62,18.62,0,0,0,6.46-5,22.18,22.18,0,0,0,4-7.18A26,26,0,0,0,1753.79,189.88Z" transform="translate(0 0)"/><path d="M1788.38,231.53A31.11,31.11,0,0,0,1811,241.58a26.73,26.73,0,0,0,10.32-1.76A17.24,17.24,0,0,0,1828,235a18.68,18.68,0,0,0,3.66-7.25,35,35,0,0,0,1.11-9v-8h-.26a21.75,21.75,0,0,1-9.27,8,29.29,29.29,0,0,1-12.54,2.75,32.48,32.48,0,0,1-12.86-2.48,29.08,29.08,0,0,1-9.86-6.79,30.68,30.68,0,0,1-6.26-10.13,34.61,34.61,0,0,1-2.22-12.46,35.21,35.21,0,0,1,2.22-12.54,31.23,31.23,0,0,1,6.26-10.25,29.41,29.41,0,0,1,9.8-6.92,31.34,31.34,0,0,1,12.79-2.54,29.31,29.31,0,0,1,12.73,2.87,21.87,21.87,0,0,1,9.6,8.75h.26v-9.93h11.88v58.76a48.66,48.66,0,0,1-1.7,13,28.17,28.17,0,0,1-5.74,11,28.82,28.82,0,0,1-10.58,7.64q-6.52,2.87-16.19,2.87a47.69,47.69,0,0,1-16.25-2.94,41.43,41.43,0,0,1-14-8.29Zm3.79-42.18a24.81,24.81,0,0,0,1.37,8.23,20.28,20.28,0,0,0,10.51,11.75,19.59,19.59,0,0,0,8.62,1.83,21.46,21.46,0,0,0,8.62-1.7,19.67,19.67,0,0,0,6.66-4.63,20.75,20.75,0,0,0,4.24-6.92,24.11,24.11,0,0,0,1.5-8.56,23.12,23.12,0,0,0-1.5-8.35,21,21,0,0,0-11-11.69,20.48,20.48,0,0,0-23.63,4.7,19.85,19.85,0,0,0-4,6.92,25.81,25.81,0,0,0-1.37,8.42Z" transform="translate(0 0)"/><path d="M1889.58,207.64h.26l17.1-48.58H1920l-30,76.52a49.91,49.91,0,0,1-3.4,7,20.72,20.72,0,0,1-4.31,5.22,17.62,17.62,0,0,1-5.81,3.33,23.57,23.57,0,0,1-7.89,1.18c-1.31,0-2.64-.07-4-.2a27.92,27.92,0,0,1-4.11-.72l1.18-10.83a19.16,19.16,0,0,0,6.13,1c3.22,0,5.62-.89,7.18-2.67a26.17,26.17,0,0,0,4.31-7.64l3.92-10.32-26.51-61.89h13.71l19.2,48.58Z" transform="translate(0 0)"/><path d="M535.37,322.76,516.69,294h-.08v28.74h-5.46V266.71h5.46v25.18h.08l17.58-25.18h6.41L521.84,292.6,542,322.76Z" transform="translate(0 0)"/><path d="M555.09,271.46a3.83,3.83,0,0,1-1,2.74,3.31,3.31,0,0,1-2.46,1.06,3.25,3.25,0,0,1-2.49-1.06,4.22,4.22,0,0,1,0-5.43,3.36,3.36,0,0,1,5,0,3.91,3.91,0,0,1,1,2.69Zm-6.1,51.3V283.5h5.23v39.26Z" transform="translate(0 0)"/><path d="M586.51,322.76V297.43a32.67,32.67,0,0,0-.2-3.68,11.46,11.46,0,0,0-.87-3.41,6.51,6.51,0,0,0-1.89-2.53,5,5,0,0,0-3.21-1,6.08,6.08,0,0,0-3.53,1.07,8.89,8.89,0,0,0-2.61,2.93,16.59,16.59,0,0,0-1.66,4.27,20.86,20.86,0,0,0-.59,5v22.64h-5.23V293.39c0-.84,0-1.75,0-2.73s0-1.93-.08-2.85-.05-1.77-.08-2.53-.06-1.36-.11-1.78h5.06c.11,1,.19,2.21.24,3.64s.08,2.77.08,4H572a14.28,14.28,0,0,1,3.64-6.46,8.67,8.67,0,0,1,6.33-2.49A8.21,8.21,0,0,1,590,287.1a16.26,16.26,0,0,1,1.38,4.91,41.34,41.34,0,0,1,.36,5.42v25.33Z" transform="translate(0 0)"/><path d="M628.31,322.21a41.67,41.67,0,0,1-.67,7.75,18.32,18.32,0,0,1-2.26,6.18,11.39,11.39,0,0,1-4.27,4.11,13.59,13.59,0,0,1-6.73,1.51,15.37,15.37,0,0,1-7.25-1.78,15,15,0,0,1-5.42-4.79l3.4-3.64a12.67,12.67,0,0,0,4,3.95,10,10,0,0,0,5.43,1.51,7.73,7.73,0,0,0,4.31-1.11,7.36,7.36,0,0,0,2.65-3.09,16.07,16.07,0,0,0,1.35-4.67,41.46,41.46,0,0,0,.39-5.93v-6.49h-.15a13.73,13.73,0,0,1-3.17,5.93,8.11,8.11,0,0,1-6.25,2.38,9.09,9.09,0,0,1-5.31-1.59,12.84,12.84,0,0,1-3.88-4.39,23.72,23.72,0,0,1-2.41-6.65,39.5,39.5,0,0,1-.83-8.43,41,41,0,0,1,.79-8.39,22.65,22.65,0,0,1,2.33-6.53,12.31,12.31,0,0,1,3.88-4.28,9.48,9.48,0,0,1,5.35-1.54,8.84,8.84,0,0,1,6,2.18,10.79,10.79,0,0,1,3.37,5.74h.23V283.5h5.07v38.71Zm-5.07-19.08a38.29,38.29,0,0,0-.51-6.41,19.64,19.64,0,0,0-1.58-5.23,9.9,9.9,0,0,0-2.66-3.48,5.91,5.91,0,0,0-7.32,0,9.74,9.74,0,0,0-2.57,3.44,18.72,18.72,0,0,0-1.5,5.19,41.21,41.21,0,0,0-.48,6.49,39.93,39.93,0,0,0,.48,6.37,19.35,19.35,0,0,0,1.5,5.19,9.73,9.73,0,0,0,2.57,3.48,6,6,0,0,0,7.37,0,10.31,10.31,0,0,0,2.61-3.44,19.15,19.15,0,0,0,1.58-5.15A38.17,38.17,0,0,0,623.24,303.13Z" transform="translate(0 0)"/><path d="M693.7,322.76V274.08h-.24l-13.77,48.68h-5.15l-13.7-48.68h-.23v48.68h-5.15V266.71h8.24l13.37,47.34h.32l13.22-47.34h8.55v56.05Z" transform="translate(0 0)"/><path d="M736.68,303.21a34.62,34.62,0,0,1-.95,8.47,22.55,22.55,0,0,1-2.69,6.57,12.77,12.77,0,0,1-4.31,4.28A11.2,11.2,0,0,1,723,324a11,11,0,0,1-5.7-1.5,13.26,13.26,0,0,1-4.32-4.28,22.31,22.31,0,0,1-2.73-6.57,35.12,35.12,0,0,1-1-8.47,37.82,37.82,0,0,1,.91-8.55,21.51,21.51,0,0,1,2.66-6.65,12.59,12.59,0,0,1,4.31-4.28,11.36,11.36,0,0,1,5.82-1.5,11.2,11.2,0,0,1,5.74,1.5A12.68,12.68,0,0,1,733,288a22.29,22.29,0,0,1,2.69,6.65,35.59,35.59,0,0,1,.95,8.55Zm-5.38-.08a38.83,38.83,0,0,0-.51-6.49,20.14,20.14,0,0,0-1.55-5.19,9.62,9.62,0,0,0-2.57-3.44,5.6,5.6,0,0,0-3.68-1.27,5.73,5.73,0,0,0-3.72,1.27,9.1,9.1,0,0,0-2.58,3.44,21.46,21.46,0,0,0-1.5,5.19,38.83,38.83,0,0,0-.51,6.49,37.43,37.43,0,0,0,.51,6.41,22.38,22.38,0,0,0,1.5,5.15,8.79,8.79,0,0,0,2.58,3.44,6.24,6.24,0,0,0,7.44,0,8.87,8.87,0,0,0,2.57-3.44,22.37,22.37,0,0,0,1.51-5.15A37.43,37.43,0,0,0,731.3,303.13Z" transform="translate(0 0)"/><path d="M766.61,322.76V297.43a35.2,35.2,0,0,0-.2-3.68,11.46,11.46,0,0,0-.87-3.41,6.54,6.54,0,0,0-1.9-2.53,5,5,0,0,0-3.21-1,6.05,6.05,0,0,0-3.52,1.07,8.78,8.78,0,0,0-2.61,2.93,15.9,15.9,0,0,0-1.66,4.27,20.87,20.87,0,0,0-.6,5v22.64h-5.23V293.39q0-1.26,0-2.73c0-1-.06-1.93-.08-2.85s-.05-1.77-.08-2.53-.07-1.36-.12-1.78h5.06c.11,1,.19,2.21.24,3.64s.08,2.77.08,4H752a14.37,14.37,0,0,1,3.64-6.46,8.86,8.86,0,0,1,14.41,2.38,16.26,16.26,0,0,1,1.39,4.91,43.12,43.12,0,0,1,.35,5.42v25.33Z" transform="translate(0 0)"/><path d="M808.4,322.21a41.67,41.67,0,0,1-.67,7.75,18.32,18.32,0,0,1-2.26,6.18,11.39,11.39,0,0,1-4.27,4.11,13.57,13.57,0,0,1-6.73,1.51,15.3,15.3,0,0,1-7.24-1.78,15,15,0,0,1-5.43-4.79l3.41-3.64a12.67,12.67,0,0,0,4,3.95,10,10,0,0,0,5.42,1.51A7.79,7.79,0,0,0,799,335.9a7.51,7.51,0,0,0,2.65-3.09,16.07,16.07,0,0,0,1.34-4.67,40,40,0,0,0,.4-5.93v-6.49h-.16a13.63,13.63,0,0,1-3.17,5.93,8.1,8.1,0,0,1-6.25,2.38,9.06,9.06,0,0,1-5.3-1.59,12.63,12.63,0,0,1-3.88-4.39,23.42,23.42,0,0,1-2.42-6.65,40.16,40.16,0,0,1-.83-8.43,41,41,0,0,1,.79-8.39,22.65,22.65,0,0,1,2.34-6.53,12.21,12.21,0,0,1,3.88-4.28,9.44,9.44,0,0,1,5.34-1.54,8.88,8.88,0,0,1,6.06,2.18,10.77,10.77,0,0,1,3.36,5.74h.24V283.5h5.06v38.71Zm-5.06-19.08a37.23,37.23,0,0,0-.52-6.41,19.64,19.64,0,0,0-1.58-5.23,9.76,9.76,0,0,0-2.65-3.48,5.65,5.65,0,0,0-3.64-1.27,5.58,5.58,0,0,0-3.68,1.27,9.76,9.76,0,0,0-2.58,3.44,19.43,19.43,0,0,0-1.5,5.19,41.21,41.21,0,0,0-.48,6.49,39.93,39.93,0,0,0,.48,6.37,20.11,20.11,0,0,0,1.5,5.19,9.74,9.74,0,0,0,2.58,3.48,6,6,0,0,0,7.36,0,10.06,10.06,0,0,0,2.61-3.44,19.15,19.15,0,0,0,1.58-5.15,37.13,37.13,0,0,0,.52-6.45Z" transform="translate(0 0)"/><path d="M839.44,322.76,826,303h-.16v19.79H820.6V262.91h5.22v37.92H826l12.66-17.33h6.26l-14.09,18.2,15,21.06Z" transform="translate(0 0)"/><path d="M856.69,283.5v25.33a35.34,35.34,0,0,0,.2,3.68,11.4,11.4,0,0,0,.87,3.4,6.79,6.79,0,0,0,1.86,2.54,4.93,4.93,0,0,0,3.25,1,6.05,6.05,0,0,0,3.52-1.07,8.78,8.78,0,0,0,2.61-2.93,16.68,16.68,0,0,0,1.67-4.28,21.23,21.23,0,0,0,.59-5V283.5h5.22v29.36c0,.85,0,1.76,0,2.74s.06,1.92.08,2.85.06,1.78.08,2.57.07,1.37.12,1.74h-5.07c-.1-1-.18-2.22-.23-3.64s-.08-2.77-.08-4h-.16a14.19,14.19,0,0,1-3.64,6.45,8.65,8.65,0,0,1-6.34,2.5,8.74,8.74,0,0,1-5.1-1.35,8.85,8.85,0,0,1-3-3.52,16.55,16.55,0,0,1-1.39-4.87,42.8,42.8,0,0,1-.35-5.46V283.5Z" transform="translate(0 0)"/><path d="M901.74,322.76a12.73,12.73,0,0,1-2.14.71,10.31,10.31,0,0,1-2.61.32q-4.12,0-5.82-2.85a14.78,14.78,0,0,1-1.7-7.6V287.77h-5.15V283.5h5.07V272.65h5.14V283.5h7v4.27h-7v24.62a10.11,10.11,0,0,0,1,5.19,3.43,3.43,0,0,0,3.09,1.62,6.26,6.26,0,0,0,1.5-.2,9.85,9.85,0,0,0,1.35-.43l.24,4.19Z" transform="translate(0 0)"/><rect x="909.02" y="266.71" width="4.59" height="19.55"/><path d="M941,290.3a8.5,8.5,0,0,0-2.65-2.81,7,7,0,0,0-3.92-1.06,5.28,5.28,0,0,0-4.16,1.85,7.16,7.16,0,0,0-1.62,4.87q0,3.18,1.59,4.6a15,15,0,0,0,4.75,2.61,24.77,24.77,0,0,1,3.16,1.54,11.59,11.59,0,0,1,2.81,2.26,11,11,0,0,1,2,3.21,11.33,11.33,0,0,1,.79,4.46q0,5.79-3.12,9a10.85,10.85,0,0,1-8.12,3.21,12.32,12.32,0,0,1-6.1-1.55,13.59,13.59,0,0,1-4.58-4.15l3.16-3.41a12.18,12.18,0,0,0,3.21,3.37,7.44,7.44,0,0,0,4.39,1.31,5.57,5.57,0,0,0,4.47-2,8,8,0,0,0,1.7-5.35,7.33,7.33,0,0,0-.63-3.2,6.61,6.61,0,0,0-1.66-2.18,11.15,11.15,0,0,0-2.34-1.5c-.87-.43-1.78-.82-2.73-1.19a19.46,19.46,0,0,1-2.89-1.35,9.7,9.7,0,0,1-2.49-2.06,9.87,9.87,0,0,1-1.78-3,12.25,12.25,0,0,1-.67-4.32,11.83,11.83,0,0,1,.83-4.51,10.08,10.08,0,0,1,2.33-3.52,11.22,11.22,0,0,1,3.44-2.3,10.76,10.76,0,0,1,4.24-.83,11.9,11.9,0,0,1,5.74,1.31,11.68,11.68,0,0,1,3.92,3.36L941,290.3Z" transform="translate(0 0)"/><rect x="967.92" y="266.71" width="5.54" height="56.05"/><path d="M1006.07,322.76V297.43a35.17,35.17,0,0,0-.19-3.68,11.78,11.78,0,0,0-.88-3.41,6.44,6.44,0,0,0-1.9-2.53,4.91,4.91,0,0,0-3.2-1,6.05,6.05,0,0,0-3.52,1.07,8.91,8.91,0,0,0-2.62,2.93,16.59,16.59,0,0,0-1.66,4.27,20.86,20.86,0,0,0-.59,5v22.64h-5.23V293.39c0-.84,0-1.75,0-2.73s0-1.93-.08-2.85,0-1.77-.07-2.53-.07-1.36-.12-1.78H991c.11,1,.19,2.21.24,3.64s.08,2.77.08,4h.16a14.19,14.19,0,0,1,3.64-6.46,8.67,8.67,0,0,1,6.33-2.49,8.21,8.21,0,0,1,8.08,4.87,16.55,16.55,0,0,1,1.38,4.91,41.34,41.34,0,0,1,.36,5.42v25.33Z" transform="translate(0 0)"/><path d="M1038.13,290.3a8.5,8.5,0,0,0-2.65-2.81,7,7,0,0,0-3.92-1.06,5.24,5.24,0,0,0-4.15,1.85,7.12,7.12,0,0,0-1.63,4.87q0,3.18,1.59,4.6a15.16,15.16,0,0,0,4.75,2.61,24.14,24.14,0,0,1,3.16,1.54,11.4,11.4,0,0,1,2.81,2.26,11,11,0,0,1,2,3.21,11.33,11.33,0,0,1,.79,4.46q0,5.79-3.12,9a10.84,10.84,0,0,1-8.12,3.21,12.29,12.29,0,0,1-6.09-1.55,13.66,13.66,0,0,1-4.6-4.15l3.17-3.41a12.18,12.18,0,0,0,3.21,3.37,7.44,7.44,0,0,0,4.39,1.31,5.6,5.6,0,0,0,4.48-2,8.06,8.06,0,0,0,1.7-5.35,7.19,7.19,0,0,0-.64-3.2,6.48,6.48,0,0,0-1.66-2.18,11.07,11.07,0,0,0-2.33-1.5c-.88-.43-1.79-.82-2.73-1.19a19.11,19.11,0,0,1-2.9-1.35,9.7,9.7,0,0,1-2.49-2.06,9.87,9.87,0,0,1-1.78-3,12.25,12.25,0,0,1-.67-4.32,11.83,11.83,0,0,1,.83-4.51,10.08,10.08,0,0,1,2.33-3.52,11.27,11.27,0,0,1,3.45-2.3,10.68,10.68,0,0,1,4.23-.83,11.9,11.9,0,0,1,5.74,1.31,11.58,11.58,0,0,1,3.92,3.36l-3.09,3.4Z" transform="translate(0 0)"/><path d="M1062.83,322.76a12.91,12.91,0,0,1-2.13.71,10.39,10.39,0,0,1-2.62.32q-4.11,0-5.82-2.85a14.78,14.78,0,0,1-1.7-7.6V287.77h-5.14V283.5h5.06V272.65h5.15V283.5h7v4.27h-7v24.62a10,10,0,0,0,1,5.19,3.4,3.4,0,0,0,3.08,1.62,6.34,6.34,0,0,0,1.51-.2,9.67,9.67,0,0,0,1.34-.43l.24,4.19Z" transform="translate(0 0)"/><path d="M1076,271.46a3.79,3.79,0,0,1-1,2.74,3.41,3.41,0,0,1-4.94,0,4.22,4.22,0,0,1,0-5.43,3.35,3.35,0,0,1,5,0,3.91,3.91,0,0,1,1,2.69Zm-6.09,51.3V283.5h5.22v39.26Z" transform="translate(0 0)"/><path d="M1100,322.76a12.73,12.73,0,0,1-2.14.71,10.25,10.25,0,0,1-2.61.32q-4.11,0-5.82-2.85a14.78,14.78,0,0,1-1.7-7.6V287.77h-5.15V283.5h5.07V272.65h5.14V283.5h7v4.27h-7v24.62a10.11,10.11,0,0,0,1,5.19,3.43,3.43,0,0,0,3.09,1.62,6.2,6.2,0,0,0,1.5-.2,9.85,9.85,0,0,0,1.35-.43l.24,4.19Z" transform="translate(0 0)"/><path d="M1112,283.5v25.33a35.34,35.34,0,0,0,.2,3.68,11.4,11.4,0,0,0,.87,3.4,6.79,6.79,0,0,0,1.86,2.54,4.91,4.91,0,0,0,3.25,1,6.05,6.05,0,0,0,3.52-1.07,8.78,8.78,0,0,0,2.61-2.93,16.31,16.31,0,0,0,1.66-4.28,20.72,20.72,0,0,0,.6-5V283.5h5.22v29.36c0,.85,0,1.76,0,2.74s0,1.92.08,2.85.06,1.78.08,2.57a16.7,16.7,0,0,0,.12,1.74H1127c-.1-1-.18-2.22-.24-3.64s-.07-2.77-.07-4h-.16a14.19,14.19,0,0,1-3.64,6.45,8.65,8.65,0,0,1-6.34,2.5,8.21,8.21,0,0,1-8.07-4.87,16.25,16.25,0,0,1-1.39-4.87,41,41,0,0,1-.35-5.46V283.5Z" transform="translate(0 0)"/><path d="M1157,322.76a12.91,12.91,0,0,1-2.13.71,10.39,10.39,0,0,1-2.62.32q-4.11,0-5.81-2.85a14.68,14.68,0,0,1-1.7-7.6V287.77h-5.15V283.5h5.06V272.65h5.15V283.5h7v4.27h-7v24.62a10.11,10.11,0,0,0,1,5.19,3.43,3.43,0,0,0,3.09,1.62,6.33,6.33,0,0,0,1.5-.2,9.85,9.85,0,0,0,1.35-.43l.23,4.19Z" transform="translate(0 0)"/><path d="M1167,304.24a30,30,0,0,0,.55,6,17.31,17.31,0,0,0,1.63,4.75,8.88,8.88,0,0,0,2.69,3.17,6.44,6.44,0,0,0,3.84,1.15,6.21,6.21,0,0,0,4.59-1.74,12,12,0,0,0,2.69-4.2l4,2.3a15.14,15.14,0,0,1-4.24,6,10.59,10.59,0,0,1-7.16,2.42,11.55,11.55,0,0,1-10.21-5.54q-3.64-5.55-3.65-15.28a35.19,35.19,0,0,1,1-8.47,21.65,21.65,0,0,1,2.73-6.65,13.19,13.19,0,0,1,4.35-4.32,11.9,11.9,0,0,1,11.64,0,11.76,11.76,0,0,1,3.92,4.12,19.65,19.65,0,0,1,2.17,6.09,39.23,39.23,0,0,1,.68,7.45v2.85Zm15.83-4.36a21.22,21.22,0,0,0-1.82-9.54,6,6,0,0,0-5.7-3.6,5.56,5.56,0,0,0-3.84,1.39,10.91,10.91,0,0,0-2.53,3.4,16.6,16.6,0,0,0-1.42,4.32,21.16,21.16,0,0,0-.44,4Z" transform="translate(0 0)"/><path d="M1237.22,303.21a35.14,35.14,0,0,1-.94,8.47,22.84,22.84,0,0,1-2.7,6.57,12.77,12.77,0,0,1-4.31,4.28,11.18,11.18,0,0,1-5.74,1.5,11,11,0,0,1-5.7-1.5,13.14,13.14,0,0,1-4.31-4.28,21.79,21.79,0,0,1-2.73-6.57,34.6,34.6,0,0,1-1-8.47,37.23,37.23,0,0,1,.92-8.55,21.5,21.5,0,0,1,2.65-6.65,12.68,12.68,0,0,1,4.31-4.28,11.36,11.36,0,0,1,5.82-1.5,11.18,11.18,0,0,1,5.74,1.5,12.51,12.51,0,0,1,4.31,4.28,22.56,22.56,0,0,1,2.7,6.65,36.1,36.1,0,0,1,1,8.55Zm-5.38-.08a38.83,38.83,0,0,0-.51-6.49,20.14,20.14,0,0,0-1.55-5.19,9.62,9.62,0,0,0-2.57-3.44,5.58,5.58,0,0,0-3.68-1.27,5.77,5.77,0,0,0-3.72,1.27,9.08,9.08,0,0,0-2.57,3.44,21.45,21.45,0,0,0-1.51,5.19,38.83,38.83,0,0,0-.51,6.49,37.43,37.43,0,0,0,.51,6.41,22.37,22.37,0,0,0,1.51,5.15,8.78,8.78,0,0,0,2.57,3.44,6.24,6.24,0,0,0,7.44,0,8.89,8.89,0,0,0,2.58-3.44,22.38,22.38,0,0,0,1.5-5.15,37.43,37.43,0,0,0,.51-6.41Z" transform="translate(0 0)"/><path d="M1260.34,266.48a7,7,0,0,0-2.29-.4,4.41,4.41,0,0,0-2.66.79,5.73,5.73,0,0,0-1.7,2.06,9.68,9.68,0,0,0-.87,2.89,23,23,0,0,0-.24,3.37v8.31h6.65v4.27h-6.65v35h-5.14v-35h-5.31V283.5h5.31v-8.31a17.8,17.8,0,0,1,2.41-9.78q2.42-3.77,7.64-3.76a10.44,10.44,0,0,1,3.25.47l-.4,4.36Z" transform="translate(0 0)"/><path d="M1290.58,271.46v51.3h-5.46v-51.3h-10.77v-4.75h27.08v4.75Z" transform="translate(0 0)"/><path d="M1307.6,304.24a30,30,0,0,0,.55,6,18,18,0,0,0,1.63,4.75,8.88,8.88,0,0,0,2.69,3.17,6.44,6.44,0,0,0,3.84,1.15,6.21,6.21,0,0,0,4.59-1.74,12,12,0,0,0,2.69-4.2l4,2.3a15.14,15.14,0,0,1-4.24,6,10.57,10.57,0,0,1-7.16,2.42,11.55,11.55,0,0,1-10.21-5.54q-3.64-5.55-3.64-15.28a35.2,35.2,0,0,1,1-8.47,21.65,21.65,0,0,1,2.73-6.65,13.38,13.38,0,0,1,4.35-4.32,11.9,11.9,0,0,1,11.64,0,11.67,11.67,0,0,1,3.92,4.12,19.65,19.65,0,0,1,2.17,6.09,39.23,39.23,0,0,1,.68,7.45v2.85Zm15.83-4.36a21.22,21.22,0,0,0-1.82-9.54,6,6,0,0,0-5.7-3.6,5.56,5.56,0,0,0-3.84,1.39,10.91,10.91,0,0,0-2.53,3.4,17,17,0,0,0-1.42,4.32,22,22,0,0,0-.44,4Z" transform="translate(0 0)"/><path d="M1358,320a10.47,10.47,0,0,1-8.71,4,11,11,0,0,1-5.86-1.55,12.8,12.8,0,0,1-4.23-4.27,21.07,21.07,0,0,1-2.58-6.57,42.06,42.06,0,0,1,0-17,21.05,21.05,0,0,1,2.62-6.61,12.75,12.75,0,0,1,4.27-4.28,11.28,11.28,0,0,1,5.86-1.5A10.93,10.93,0,0,1,1358,286l-2.77,3.8a7.17,7.17,0,0,0-2.38-2.14,6.82,6.82,0,0,0-3.32-.79,5.73,5.73,0,0,0-3.68,1.23,9.42,9.42,0,0,0-2.58,3.4,20.19,20.19,0,0,0-1.54,5.15,38.64,38.64,0,0,0-.51,6.53,37.43,37.43,0,0,0,.51,6.41,19.67,19.67,0,0,0,1.54,5.07,8.66,8.66,0,0,0,2.66,3.32,6.32,6.32,0,0,0,3.83,1.19,6.94,6.94,0,0,0,3.45-.83,7.49,7.49,0,0,0,2.49-2.34l2.38,4Z" transform="translate(0 0)"/><path d="M1384.55,322.76V297.43a35.2,35.2,0,0,0-.2-3.68,12.44,12.44,0,0,0-.83-3.41,6.17,6.17,0,0,0-1.86-2.53,5,5,0,0,0-3.21-1,6.05,6.05,0,0,0-3.52,1.07,9.21,9.21,0,0,0-2.65,2.93,15.31,15.31,0,0,0-1.7,4.27,20.87,20.87,0,0,0-.6,5v22.64h-5.22V262.91H1370v28h.16a13.39,13.39,0,0,1,3.56-6.26,8.88,8.88,0,0,1,14.41,2.42,16.55,16.55,0,0,1,1.39,4.91,43.12,43.12,0,0,1,.35,5.42v25.33Z" transform="translate(0 0)"/><path d="M1421.83,322.76V297.43a32.67,32.67,0,0,0-.2-3.68,11.77,11.77,0,0,0-.86-3.41,6.56,6.56,0,0,0-1.91-2.53,4.91,4.91,0,0,0-3.2-1,6.08,6.08,0,0,0-3.53,1.07,8.89,8.89,0,0,0-2.61,2.93,16.24,16.24,0,0,0-1.66,4.27,20.86,20.86,0,0,0-.59,5v22.64H1402V293.39c0-.84,0-1.75,0-2.73s0-1.93-.08-2.85-.05-1.77-.07-2.53-.07-1.36-.12-1.78h5.06c.11,1,.19,2.21.24,3.64s.08,2.77.08,4h.16a14.28,14.28,0,0,1,3.64-6.46,8.67,8.67,0,0,1,6.33-2.49,8.21,8.21,0,0,1,8.08,4.87,16.55,16.55,0,0,1,1.38,4.91,41.34,41.34,0,0,1,.36,5.42v25.33Z" transform="translate(0 0)"/><path d="M1464,303.21a35.12,35.12,0,0,1-1,8.47,22.83,22.83,0,0,1-2.69,6.57,12.8,12.8,0,0,1-4.32,4.28,11.18,11.18,0,0,1-5.74,1.5,11,11,0,0,1-5.7-1.5,13.14,13.14,0,0,1-4.31-4.28,21.79,21.79,0,0,1-2.73-6.57,34.62,34.62,0,0,1-1-8.47,37.25,37.25,0,0,1,.91-8.55,21.5,21.5,0,0,1,2.65-6.65,12.68,12.68,0,0,1,4.31-4.28,11.36,11.36,0,0,1,5.82-1.5,11.18,11.18,0,0,1,5.74,1.5,12.71,12.71,0,0,1,4.32,4.28,22.55,22.55,0,0,1,2.69,6.65,36.1,36.1,0,0,1,1,8.55Zm-5.39-.08a38.83,38.83,0,0,0-.51-6.49,19.75,19.75,0,0,0-1.55-5.19,9.62,9.62,0,0,0-2.57-3.44,5.58,5.58,0,0,0-3.68-1.27,5.77,5.77,0,0,0-3.72,1.27,9.18,9.18,0,0,0-2.57,3.44,21.45,21.45,0,0,0-1.51,5.19,38.83,38.83,0,0,0-.51,6.49,37.43,37.43,0,0,0,.51,6.41,22.37,22.37,0,0,0,1.51,5.15,8.87,8.87,0,0,0,2.57,3.44,6.24,6.24,0,0,0,7.44,0,8.79,8.79,0,0,0,2.58-3.44,22.38,22.38,0,0,0,1.5-5.15,37.43,37.43,0,0,0,.51-6.41Z" transform="translate(0 0)"/><rect x="1473.76" y="262.91" width="5.23" height="59.85"/><path d="M1516.19,303.21a34.62,34.62,0,0,1-1,8.47,22.55,22.55,0,0,1-2.69,6.57,12.77,12.77,0,0,1-4.31,4.28,11.2,11.2,0,0,1-5.74,1.5,11,11,0,0,1-5.7-1.5,13.14,13.14,0,0,1-4.31-4.28,21.79,21.79,0,0,1-2.73-6.57,34.6,34.6,0,0,1-1-8.47,37.82,37.82,0,0,1,.91-8.55,21.76,21.76,0,0,1,2.66-6.65,12.68,12.68,0,0,1,4.31-4.28,11.34,11.34,0,0,1,5.82-1.5,11.2,11.2,0,0,1,5.74,1.5,12.68,12.68,0,0,1,4.31,4.28,22.29,22.29,0,0,1,2.69,6.65,35.59,35.59,0,0,1,1,8.55Zm-5.38-.08a38.83,38.83,0,0,0-.51-6.49,20.14,20.14,0,0,0-1.55-5.19,9.62,9.62,0,0,0-2.57-3.44,5.6,5.6,0,0,0-3.68-1.27,5.75,5.75,0,0,0-3.72,1.27,9.08,9.08,0,0,0-2.57,3.44,21,21,0,0,0-1.51,5.19,38.83,38.83,0,0,0-.51,6.49,37.43,37.43,0,0,0,.51,6.41,21.88,21.88,0,0,0,1.51,5.15,8.78,8.78,0,0,0,2.57,3.44,6.24,6.24,0,0,0,7.44,0,8.87,8.87,0,0,0,2.57-3.44,21.89,21.89,0,0,0,1.5-5.15,36.41,36.41,0,0,0,.52-6.41Z" transform="translate(0 0)"/><path d="M1550.71,322.21A42.54,42.54,0,0,1,1550,330a18.54,18.54,0,0,1-2.26,6.18,11.34,11.34,0,0,1-4.28,4.11,13.53,13.53,0,0,1-6.72,1.51,15.37,15.37,0,0,1-7.25-1.78,15,15,0,0,1-5.42-4.79l3.4-3.64a12.67,12.67,0,0,0,4,3.95,10,10,0,0,0,5.42,1.51,7.76,7.76,0,0,0,4.32-1.11,7.43,7.43,0,0,0,2.65-3.09,16.38,16.38,0,0,0,1.35-4.67,41.46,41.46,0,0,0,.39-5.93v-6.49h-.16a13.61,13.61,0,0,1-3.16,5.93,8.12,8.12,0,0,1-6.25,2.38,9.09,9.09,0,0,1-5.31-1.59,12.84,12.84,0,0,1-3.88-4.39,23.72,23.72,0,0,1-2.42-6.65,40.18,40.18,0,0,1-.82-8.43,41,41,0,0,1,.79-8.39,22.65,22.65,0,0,1,2.33-6.53,12.21,12.21,0,0,1,3.88-4.28,9.47,9.47,0,0,1,5.34-1.54,8.85,8.85,0,0,1,6.06,2.18,10.77,10.77,0,0,1,3.36,5.74h.24V283.5h5.07v38.71Zm-5.07-19.08a38.29,38.29,0,0,0-.51-6.41,19.64,19.64,0,0,0-1.58-5.23,9.9,9.9,0,0,0-2.66-3.48,5.91,5.91,0,0,0-7.32,0,9.62,9.62,0,0,0-2.57,3.44,19.06,19.06,0,0,0-1.51,5.19,42.48,42.48,0,0,0-.47,6.49,41.17,41.17,0,0,0,.47,6.37,19.72,19.72,0,0,0,1.51,5.19,9.61,9.61,0,0,0,2.57,3.48,6,6,0,0,0,7.36,0,10.2,10.2,0,0,0,2.62-3.44,19.15,19.15,0,0,0,1.58-5.15A38.17,38.17,0,0,0,1545.64,303.13Z" transform="translate(0 0)"/><path d="M1572.79,331.07a32.06,32.06,0,0,1-1.46,4.52,12,12,0,0,1-2,3.32,8.62,8.62,0,0,1-2.73,2.1,8.36,8.36,0,0,1-3.68.75,12.82,12.82,0,0,1-2.22-.2,14.58,14.58,0,0,1-1.82-.43l.71-4.67c.37.1.82.21,1.35.31a7.77,7.77,0,0,0,1.58.16,4,4,0,0,0,3.45-1.58,13.18,13.18,0,0,0,1.86-4.36l1.74-6.81-11.4-40.68h5.54l8.47,33.17h.16l7.52-33.17h5.3l-12.35,47.57Z" transform="translate(0 0)"/><path d="M1607.55,322.76V266.71h5.54v50.9h16v5.15Z" transform="translate(0 0)"/><path d="M1652,322.76a14.87,14.87,0,0,1-.12-1.58c0-.64-.06-1.31-.08-2s0-1.4,0-2.06v-1.7h-.16q-2,8.39-9.5,8.39a9.3,9.3,0,0,1-3.32-.63,8.19,8.19,0,0,1-3-2.06,11.17,11.17,0,0,1-2.22-3.61,14.12,14.12,0,0,1-.87-5.26,13.62,13.62,0,0,1,1.51-6.88,11.89,11.89,0,0,1,3.79-4.12,13.8,13.8,0,0,1,5-2,28.34,28.34,0,0,1,5.19-.52h3.09v-2.05c0-3.43-.64-5.94-1.9-7.52a6.27,6.27,0,0,0-5.15-2.38,7.65,7.65,0,0,0-4.12,1.19,11.61,11.61,0,0,0-3.24,3l-2.77-3.25a12.2,12.2,0,0,1,4.75-4,13.25,13.25,0,0,1,5.85-1.42q6.18,0,8.79,4t2.61,11.79v16.31c0,.53,0,1.19,0,2s.06,1.59.08,2.41.07,1.59.12,2.3.11,1.28.16,1.7Zm-.64-19.95h-3.16a20.29,20.29,0,0,0-3.8.36,8.92,8.92,0,0,0-3.37,1.35,7.48,7.48,0,0,0-2.41,2.73,9.29,9.29,0,0,0-.95,4.51q0,4.11,1.82,5.93a5.54,5.54,0,0,0,7.72.48,9.57,9.57,0,0,0,2.45-3.41,18.36,18.36,0,0,0,1.31-4.51,30.21,30.21,0,0,0,.39-4.75Z" transform="translate(0 0)"/><path d="M1687.1,322.76v-7H1687a13.73,13.73,0,0,1-3.17,5.93,8.11,8.11,0,0,1-6.25,2.38,9.09,9.09,0,0,1-5.31-1.59,12.84,12.84,0,0,1-3.88-4.39,23.72,23.72,0,0,1-2.41-6.65,39.5,39.5,0,0,1-.83-8.43,41,41,0,0,1,.79-8.39,22.65,22.65,0,0,1,2.34-6.53,12.21,12.21,0,0,1,3.88-4.28,9.42,9.42,0,0,1,5.34-1.54,8.69,8.69,0,0,1,6,2.18,10.86,10.86,0,0,1,3.33,5.74h.16V262.91h5.22v59.85Zm0-19.63a37.8,37.8,0,0,0-.51-6.49,19,19,0,0,0-1.58-5.19,9.92,9.92,0,0,0-2.66-3.44,5.91,5.91,0,0,0-7.32,0,9.74,9.74,0,0,0-2.57,3.44,18.72,18.72,0,0,0-1.5,5.19,41.21,41.21,0,0,0-.48,6.49,39.93,39.93,0,0,0,.48,6.37,19.35,19.35,0,0,0,1.5,5.19,9.73,9.73,0,0,0,2.57,3.48,6,6,0,0,0,7.37,0,10.16,10.16,0,0,0,2.61-3.48,19.68,19.68,0,0,0,1.58-5.19A36.63,36.63,0,0,0,1687.1,303.13Z" transform="translate(0 0)"/><path d="M1723.2,322.76,1709.74,303h-.15v19.79h-5.23V262.91h5.23v37.92h.15l12.67-17.33h6.25l-14.08,18.2,15,21.06Z" transform="translate(0 0)"/><path d="M1741.57,292.05q1.11-5.16,3.4-7.44a7.17,7.17,0,0,1,5.23-2.3,4.39,4.39,0,0,1,1,.08l-.16,5.38-.6-.12a5.88,5.88,0,0,0-.67,0,5.19,5.19,0,0,0-3.52,1.35,10.72,10.72,0,0,0-2.58,3.48,20.17,20.17,0,0,0-1.54,4.87,29.49,29.49,0,0,0-.51,5.42v20h-5.23V293.39q0-1.26,0-2.73c0-1-.06-1.93-.08-2.85s-.06-1.77-.09-2.53-.06-1.36-.11-1.78h5.06c.11,1,.19,2.25.24,3.76s.08,3.1.08,4.79Z" transform="translate(0 0)"/><path d="M1773.71,322.76c-.06-.42-.09-.95-.12-1.58s0-1.31-.08-2,0-1.4,0-2.06v-1.7h-.16q-2,8.39-9.5,8.39a9.34,9.34,0,0,1-3.32-.63,8.19,8.19,0,0,1-3-2.06,11.17,11.17,0,0,1-2.22-3.61,14.12,14.12,0,0,1-.87-5.26,13.73,13.73,0,0,1,1.51-6.88,11.82,11.82,0,0,1,3.8-4.12,13.68,13.68,0,0,1,5-2,28.43,28.43,0,0,1,5.19-.52H1773v-2.05c0-3.43-.64-5.94-1.9-7.52a6.27,6.27,0,0,0-5.15-2.38,7.65,7.65,0,0,0-4.12,1.19,11.61,11.61,0,0,0-3.24,3l-2.77-3.25a12.27,12.27,0,0,1,4.75-4,13.26,13.26,0,0,1,5.86-1.42q6.16,0,8.78,4t2.61,11.79v16.31c0,.53,0,1.19,0,2s.06,1.59.08,2.41.07,1.59.12,2.3.11,1.28.16,1.7Zm-.64-19.95h-3.16a20.37,20.37,0,0,0-3.8.36,8.92,8.92,0,0,0-3.37,1.35,7.48,7.48,0,0,0-2.41,2.73,9.4,9.4,0,0,0-.95,4.51q0,4.11,1.82,5.93a5.54,5.54,0,0,0,7.72.48,9.45,9.45,0,0,0,2.45-3.41,18.36,18.36,0,0,0,1.31-4.51,30.21,30.21,0,0,0,.39-4.75Z" transform="translate(0 0)"/><path d="M1816.3,303a40.16,40.16,0,0,1-.83,8.43,23.72,23.72,0,0,1-2.42,6.65,12.74,12.74,0,0,1-3.88,4.39,9.06,9.06,0,0,1-5.3,1.59,8.18,8.18,0,0,1-6.25-2.34,13.34,13.34,0,0,1-3.17-6h-.16v7h-5.07V262.91h5.23v27.32h.08a11.65,11.65,0,0,1,3.36-5.78,8.5,8.5,0,0,1,6-2.22,9.42,9.42,0,0,1,5.34,1.54,12.5,12.5,0,0,1,3.92,4.28,22.08,22.08,0,0,1,2.38,6.53,41.75,41.75,0,0,1,.79,8.39Zm-5.39.16a40.66,40.66,0,0,0-.47-6.41,20.08,20.08,0,0,0-1.5-5.23,9.74,9.74,0,0,0-2.58-3.48,5.91,5.91,0,0,0-7.32,0,9.76,9.76,0,0,0-2.65,3.48,20,20,0,0,0-1.59,5.23,40.79,40.79,0,0,0,0,12.86,19.51,19.51,0,0,0,1.59,5.15,10.06,10.06,0,0,0,2.61,3.44,6,6,0,0,0,7.36,0,9.76,9.76,0,0,0,2.58-3.44,19.56,19.56,0,0,0,1.5-5.15A40.55,40.55,0,0,0,1810.91,303.13Z" transform="translate(0 0)"/><path d="M1842.58,322.76c0-.42-.09-.95-.12-1.58s0-1.31-.08-2,0-1.4,0-2.06v-1.7h-.16q-2,8.39-9.5,8.39a9.34,9.34,0,0,1-3.32-.63,8.19,8.19,0,0,1-3-2.06,11.34,11.34,0,0,1-2.22-3.61,14.12,14.12,0,0,1-.87-5.26,13.73,13.73,0,0,1,1.51-6.88,11.82,11.82,0,0,1,3.8-4.12,13.66,13.66,0,0,1,5-2,28.24,28.24,0,0,1,5.18-.52h3.09v-2.05c0-3.43-.64-5.94-1.9-7.52a6.26,6.26,0,0,0-5.15-2.38,7.65,7.65,0,0,0-4.12,1.19,11.75,11.75,0,0,0-3.24,3l-2.77-3.25a12.27,12.27,0,0,1,4.75-4,13.26,13.26,0,0,1,5.86-1.42q6.17,0,8.78,4c1.75,2.69,2.61,6.62,2.61,11.79v16.31c0,.53,0,1.19,0,2s0,1.59.07,2.41.07,1.59.12,2.3.11,1.28.16,1.7Zm-.64-19.95h-3.16a20.37,20.37,0,0,0-3.8.36,8.92,8.92,0,0,0-3.37,1.35,7.48,7.48,0,0,0-2.41,2.73,9.4,9.4,0,0,0-1,4.51q0,4.11,1.82,5.93a5.54,5.54,0,0,0,7.72.48,9.45,9.45,0,0,0,2.45-3.41,17.94,17.94,0,0,0,1.31-4.51,30.21,30.21,0,0,0,.39-4.75Z" transform="translate(0 0)"/><path d="M1878.2,322.76V297.43a35.17,35.17,0,0,0-.19-3.68,11.78,11.78,0,0,0-.88-3.41,6.54,6.54,0,0,0-1.9-2.53,4.91,4.91,0,0,0-3.2-1,6,6,0,0,0-3.52,1.07,8.8,8.8,0,0,0-2.62,2.93,16.59,16.59,0,0,0-1.66,4.27,21.38,21.38,0,0,0-.59,5v22.64h-5.23V293.39c0-.84,0-1.75,0-2.73s0-1.93-.08-2.85,0-1.77-.08-2.53-.06-1.36-.11-1.78h5.06c.11,1,.18,2.21.24,3.64s.08,2.77.08,4h.16a14.19,14.19,0,0,1,3.64-6.46,8.67,8.67,0,0,1,6.33-2.49,8.8,8.8,0,0,1,5.11,1.35,8.68,8.68,0,0,1,3,3.52,16.26,16.26,0,0,1,1.39,4.91,41.34,41.34,0,0,1,.36,5.42v25.33Z" transform="translate(0 0)"/><path d="M1920,322.21a41.67,41.67,0,0,1-.67,7.75,18.32,18.32,0,0,1-2.26,6.18,11.46,11.46,0,0,1-4.27,4.11,13.59,13.59,0,0,1-6.73,1.51,15.37,15.37,0,0,1-7.25-1.78,15,15,0,0,1-5.42-4.79l3.41-3.64a12.54,12.54,0,0,0,4,3.95,10,10,0,0,0,5.43,1.51,7.73,7.73,0,0,0,4.31-1.11,7.43,7.43,0,0,0,2.65-3.09,16.07,16.07,0,0,0,1.35-4.67,41.46,41.46,0,0,0,.39-5.93v-6.49h-.16a13.61,13.61,0,0,1-3.16,5.93,8.12,8.12,0,0,1-6.26,2.38,9.08,9.08,0,0,1-5.3-1.59,12.84,12.84,0,0,1-3.88-4.39,23.72,23.72,0,0,1-2.41-6.65,39.5,39.5,0,0,1-.83-8.43,41,41,0,0,1,.79-8.39,22.36,22.36,0,0,1,2.33-6.53,12.31,12.31,0,0,1,3.88-4.28,9.48,9.48,0,0,1,5.35-1.54,8.84,8.84,0,0,1,6,2.18,10.72,10.72,0,0,1,3.37,5.74h.23V283.5H1920v38.71Zm-5.07-19.08a38.29,38.29,0,0,0-.51-6.41,19.64,19.64,0,0,0-1.59-5.23,9.76,9.76,0,0,0-2.65-3.48,5.91,5.91,0,0,0-7.32,0,9.62,9.62,0,0,0-2.57,3.44,19.06,19.06,0,0,0-1.51,5.19,42.48,42.48,0,0,0-.47,6.49,41.17,41.17,0,0,0,.47,6.37,19.72,19.72,0,0,0,1.51,5.19,9.61,9.61,0,0,0,2.57,3.48,6,6,0,0,0,7.36,0,10.06,10.06,0,0,0,2.61-3.44,19.14,19.14,0,0,0,1.59-5.15A38.17,38.17,0,0,0,1914.93,303.13Z" transform="translate(0 0)"/><path d="M519.48,85.15a11.72,11.72,0,0,0,4.95,4.28,14.77,14.77,0,0,0,6.21,1.38,12.69,12.69,0,0,0,3.64-.56,11,11,0,0,0,3.39-1.68,9,9,0,0,0,2.49-2.75,7.25,7.25,0,0,0,1-3.79,5.69,5.69,0,0,0-1.94-4.65,16.58,16.58,0,0,0-4.79-2.68c-1.91-.72-4-1.41-6.25-2.08a25.4,25.4,0,0,1-6.25-2.79,15.27,15.27,0,0,1-4.8-4.8,14.94,14.94,0,0,1-1.93-8.15,14.06,14.06,0,0,1,4.16-9.67,17.47,17.47,0,0,1,5.55-3.6A20.53,20.53,0,0,1,533,42.16a28.21,28.21,0,0,1,8.26,1.19,14.18,14.18,0,0,1,6.92,4.83l-5.81,5.28a9.6,9.6,0,0,0-3.79-3.34A12,12,0,0,0,533,48.85a13.6,13.6,0,0,0-4.95.78,8.86,8.86,0,0,0-3.16,2,7.13,7.13,0,0,0-1.67,2.64,8.17,8.17,0,0,0-.49,2.6A6.64,6.64,0,0,0,524.69,62a15.14,15.14,0,0,0,4.8,2.9,59.74,59.74,0,0,0,6.25,2A26.41,26.41,0,0,1,542,69.42a14.56,14.56,0,0,1,4.8,4.31,12.71,12.71,0,0,1,1.94,7.48,15.81,15.81,0,0,1-1.45,6.84,15.17,15.17,0,0,1-3.91,5.14,17.43,17.43,0,0,1-5.8,3.19,22.25,22.25,0,0,1-7.14,1.12,26,26,0,0,1-9.6-1.79,15.83,15.83,0,0,1-7.22-5.5Z" transform="translate(0 0)"/><path d="M582.79,70.27a14.29,14.29,0,0,0-3.91-2.93,10.94,10.94,0,0,0-4.87-1,10.74,10.74,0,0,0-4.8,1,9.77,9.77,0,0,0-3.42,2.75,12.19,12.19,0,0,0-2.08,4,15.46,15.46,0,0,0-.71,4.72,13.08,13.08,0,0,0,.82,4.65,11.65,11.65,0,0,0,2.3,3.83,10.6,10.6,0,0,0,3.57,2.57,11.38,11.38,0,0,0,4.69.93,10.67,10.67,0,0,0,4.83-1,12.38,12.38,0,0,0,3.72-2.94l4.76,4.76a14.83,14.83,0,0,1-6.06,4.17,21.21,21.21,0,0,1-7.32,1.26,20,20,0,0,1-7.48-1.34A17.24,17.24,0,0,1,561,92a16.54,16.54,0,0,1-3.79-5.8,20,20,0,0,1-1.34-7.48,20.27,20.27,0,0,1,1.34-7.51,16.72,16.72,0,0,1,9.55-9.71,19.88,19.88,0,0,1,7.56-1.38,20.21,20.21,0,0,1,7.4,1.38,16.33,16.33,0,0,1,6.13,4.2Z" transform="translate(0 0)"/><path d="M593.42,39.92h6.7V66.33h.15a9.81,9.81,0,0,1,4.39-4.57A14.44,14.44,0,0,1,611.87,60a15.28,15.28,0,0,1,4.87.78,10.89,10.89,0,0,1,4.09,2.42,11.53,11.53,0,0,1,2.79,4.2,15.94,15.94,0,0,1,1,6.06V96.16H618V75.33a11.71,11.71,0,0,0-.67-4.2,7.84,7.84,0,0,0-1.78-2.83A6.82,6.82,0,0,0,613,66.74a9.53,9.53,0,0,0-3-.48,10.85,10.85,0,0,0-3.87.67,8,8,0,0,0-3.13,2.12,10,10,0,0,0-2.08,3.68,17,17,0,0,0-.74,5.28V96.16h-6.7Z" transform="translate(0 0)"/><path d="M633.07,78.53a17.86,17.86,0,0,1,1.45-7.21,19,19,0,0,1,24.66-9.86,18.5,18.5,0,0,1,6,4,18.75,18.75,0,0,1,4,5.88,17.86,17.86,0,0,1,1.45,7.21,18.35,18.35,0,0,1-5.43,13.13,19.07,19.07,0,0,1-26.63,0,18.35,18.35,0,0,1-5.43-13.13Zm7.14,0a14.36,14.36,0,0,0,.82,5,11.17,11.17,0,0,0,2.31,3.87A10.71,10.71,0,0,0,647,89.88a13,13,0,0,0,9.67,0,10.85,10.85,0,0,0,3.65-2.53,11.15,11.15,0,0,0,2.3-3.87,15.35,15.35,0,0,0,0-9.9,11,11,0,0,0-2.3-3.86,10.71,10.71,0,0,0-3.65-2.53,13,13,0,0,0-9.67,0,10.57,10.57,0,0,0-3.64,2.53A11,11,0,0,0,641,73.58,14.44,14.44,0,0,0,640.21,78.53Z" transform="translate(0 0)"/><path d="M677.26,78.53a17.86,17.86,0,0,1,1.45-7.21,18.89,18.89,0,0,1,30.61-5.88,18.92,18.92,0,0,1,4,5.88,18,18,0,0,1,1.45,7.21,18.35,18.35,0,0,1-5.43,13.13A18.87,18.87,0,0,1,696,97.05a18.87,18.87,0,0,1-13.31-5.39,18.35,18.35,0,0,1-5.43-13.13Zm7.14,0a14.36,14.36,0,0,0,.82,5,11.15,11.15,0,0,0,2.3,3.87,10.75,10.75,0,0,0,3.65,2.53,13,13,0,0,0,9.67,0,10.71,10.71,0,0,0,3.64-2.53,11.33,11.33,0,0,0,2.31-3.87,15.35,15.35,0,0,0,0-9.9,11.19,11.19,0,0,0-2.31-3.86,10.57,10.57,0,0,0-3.64-2.53,13,13,0,0,0-9.67,0,10.61,10.61,0,0,0-3.65,2.53,11,11,0,0,0-2.3,3.86A14.44,14.44,0,0,0,684.4,78.53Z" transform="translate(0 0)"/><path d="M723.67,39.92h6.7V96.16h-6.7Z" transform="translate(0 0)"/><path d="M760,78.53a18,18,0,0,1,1.45-7.21,18.92,18.92,0,0,1,4-5.88,19,19,0,0,1,26.64,0,18.92,18.92,0,0,1,4,5.88,18,18,0,0,1,1.45,7.21A18.35,18.35,0,0,1,792,91.66a18.88,18.88,0,0,1-6,3.94,19.09,19.09,0,0,1-20.68-3.94A18.35,18.35,0,0,1,760,78.53Zm7.15,0a14.6,14.6,0,0,0,.81,5,11.33,11.33,0,0,0,2.31,3.87,10.81,10.81,0,0,0,3.64,2.53,13.06,13.06,0,0,0,9.68,0,10.81,10.81,0,0,0,3.64-2.53,11.33,11.33,0,0,0,2.31-3.87,15.53,15.53,0,0,0,0-9.9,11.19,11.19,0,0,0-2.31-3.86,10.67,10.67,0,0,0-3.64-2.53,13.06,13.06,0,0,0-9.68,0,10.67,10.67,0,0,0-3.64,2.53,11.19,11.19,0,0,0-2.31,3.86A14.69,14.69,0,0,0,767.12,78.53Z" transform="translate(0 0)"/><path d="M808.47,66.7h-7.58V60.9h7.58V53q0-7.07,2.72-10.53T820.53,39c.74,0,1.52,0,2.34.08a13.46,13.46,0,0,1,2.64.44l-.74,6a10.48,10.48,0,0,0-1.86-.52,11.75,11.75,0,0,0-1.94-.15,6.69,6.69,0,0,0-3,.56,4.17,4.17,0,0,0-1.75,1.6,6.31,6.31,0,0,0-.82,2.49,27,27,0,0,0-.19,3.31V60.9h8v5.8h-8V96.16h-6.7Z" transform="translate(0 0)"/></g></g></g></svg>